<svg width="1024" height="1024" viewBox="0 0 1024 1024" fill="none" xmlns="http://www.w3.org/2000/svg">
<rect width="1024" height="1024" rx="140" fill="#93EEF9"/>
<path d="M1024 461.232L540.624 176.068L73.9915 650.802L473.654 1024L883.038 1023.46C883.038 1023.46 937.025 1023.46 984.574 973.232C1024 931.585 1024 876.557 1024 876.557V461.232Z" fill="#81E1ED"/>
<path d="M87.0745 198.311V538.092L538.01 450.272L529.393 189.672L87.0745 198.311Z" fill="#E9DAD7"/>
<path d="M934.726 598.929V711.228L457.942 850.891L453.076 848.363L75.9495 652.195V187.869L542.673 172.751L545.549 430.468L526.872 436.235L519.687 195.186L108.97 209.465L106.106 558.608L463.682 715.547L463.96 715.484L934.726 598.929Z" fill="#FFDDD5"/>
<path opacity="0.1" d="M934.726 598.929V711.228L457.942 850.891L453.076 848.363L463.961 715.484L934.726 598.929Z" fill="black"/>
<path d="M359.932 435.867C359.932 435.867 129.092 458.962 106.677 492.41C84.2615 525.858 106.486 566.891 106.486 566.891L463.352 722.382L947.308 597.125C947.308 597.125 934.384 509.293 894.179 499.219C853.974 489.145 533.689 420.038 533.689 420.038C533.689 420.038 404.445 412.111 359.932 435.867Z" fill="#EBECF0"/>
<path d="M207.461 420.396C207.461 420.396 134.472 429.434 127.385 442.524C120.298 455.614 127.325 471.672 127.325 471.672L240.161 532.523L393.181 483.504C393.181 483.504 389.095 449.131 376.383 445.189C363.67 441.247 262.401 414.202 262.401 414.202C262.401 414.202 221.535 411.099 207.461 420.396Z" fill="#F4F4F4"/>
<path d="M384.531 379.578C384.531 379.578 310.663 387.466 303.491 398.89C296.318 410.314 303.43 424.328 303.43 424.328L417.625 477.435L572.489 434.654C572.489 434.654 568.354 404.656 555.488 401.216C542.623 397.775 440.133 374.172 440.133 374.172C440.133 374.172 398.775 371.465 384.531 379.578Z" fill="#F4F4F4"/>
</svg>
